<svg height="511pt" viewBox="-146 1 511 511.97" width="511pt" xmlns="http://www.w3.org/2000/svg"><path d="m135.964844 140.148438h-48.070313c-3.65625 0-6.777343-2.632813-7.394531-6.234376-2.46875-14.40625-9.769531-18.941406-16.832031-23.328124-11.367188-7.0625-19.824219-14.785157-8.230469-37.351563-1.015625-.765625-2.5-1.695313-3.515625-2.335937-4.738281-2.976563-10.632813-6.683594-11.503906-13.597657-.550781-4.390625 1.191406-8.746093 5.183593-12.945312 3.671876-3.867188 3.078126-5.339844 1.316407-9.710938-1.855469-4.597656-5.710938-14.167969 5.671875-22.25 8.285156-5.882812 16.03125-2.148437 21.160156.328125 5.640625 2.71875 8.839844 4.011719 14.28125 1.289063 3.273438-1.636719 6.21875-3.992188 8.757812-7.003907 3.75-4.453124 9.269532-7.007812 15.140626-7.007812 5.871093 0 11.390624 2.554688 15.144531 7.007812 2.535156 3.011719 5.480469 5.367188 8.753906 7.003907 5.445313 2.722656 8.644531 1.429687 14.28125-1.292969 5.128906-2.472656 12.878906-6.207031 21.160156-.328125 11.382813 8.085937 7.527344 17.65625 5.671875 22.253906-1.761718 4.371094-2.355468 5.84375 1.316406 9.710938 3.992188 4.199219 5.734376 8.554687 5.183594 12.945312-.871094 6.914063-6.765625 10.621094-11.503906 13.597657-1.015625.636718-2.503906 1.570312-3.515625 2.335937 11.589844 22.566406 3.132813 30.289063-8.230469 37.347656-7.0625 4.390625-14.363281 8.925781-16.832031 23.332031-.617187 3.601563-3.738281 6.234376-7.394531 6.234376zm-42.09375-15h36.113281c4.707031-16.382813 15.132813-22.859376 22.289063-27.304688 3.09375-1.921875 6.015624-3.738281 6.539062-5.285156.34375-1.023438.605469-4.414063-4.390625-13.71875-5.886719-10.957032 4.921875-17.746094 9.535156-20.644532 1.203125-.753906 3.011719-1.890624 4.074219-2.769531-.164062-.210937-.378906-.457031-.648438-.738281-10.316406-10.859375-6.4375-20.484375-4.355468-25.652344.394531-.972656.96875-2.398437 1.082031-3.074218-.171875-.21875-.597656-.675782-1.527344-1.339844-.75-.53125-1.054687-.753906-5.960937 1.609375-6.058594 2.921875-15.21875 7.339843-27.503906 1.195312-5.109376-2.554687-9.660157-6.171875-13.519532-10.753906-1.222656-1.453125-2.824218-1.671875-3.667968-1.671875s-2.445313.21875-3.671876 1.675781c-3.859374 4.578125-8.40625 8.195313-13.515624 10.75-12.285157 6.144531-21.445313 1.730469-27.503907-1.191406-4.898437-2.363281-5.210937-2.144531-5.960937-1.613281-.929688.664062-1.355469 1.125-1.527344 1.339844.113281.675781.6875 2.101562 1.082031 3.074218 2.082031 5.167969 5.964844 14.792969-4.355469 25.652344-.269531.28125-.484374.527344-.648437.738281 1.0625.875 2.875 2.011719 4.074219 2.769531 4.613281 2.898438 15.421875 9.6875 9.535156 20.644532-5 9.304687-4.734375 12.691406-4.390625 13.714844.519531 1.546874 3.445313 3.363281 6.539063 5.285156 7.152343 4.449218 17.582031 10.925781 22.285156 27.308594zm0 0"/><path d="m111.929688 140.148438c-4.144532 0-7.5-3.359376-7.5-7.5v-95.933594c0-4.140625 3.355468-7.5 7.5-7.5 4.144531 0 7.5 3.359375 7.5 7.5v95.933594c0 4.140624-3.355469 7.5-7.5 7.5zm0 0"/><path d="m111.929688 125.644531c-4.144532 0-7.5-3.359375-7.5-7.5 0-43.457031 33.429687-61.0625 34.851562-61.792969 3.6875-1.886718 8.207031-.425781 10.09375 3.261719 1.882812 3.679688.433594 8.183594-3.234375 10.078125-1.175781.621094-26.710937 14.460938-26.710937 48.453125 0 4.140625-3.355469 7.5-7.5 7.5zm0 0"/><path d="m111.929688 125.644531c-4.144532 0-7.5-3.359375-7.5-7.5 0-34.382812-26.417969-48.300781-26.6875-48.4375-3.6875-1.886719-5.144532-6.40625-3.257813-10.09375s6.40625-5.148437 10.09375-3.261719c1.421875.730469 34.851563 18.335938 34.851563 61.792969 0 4.140625-3.355469 7.5-7.5 7.5zm0 0"/><path d="m43.726562 256.390625h-35.734374c-4.140626 0-7.5-3.355469-7.5-7.5 0-4.140625 3.359374-7.5 7.5-7.5h35.734374c4.140626 0 7.5 3.359375 7.5 7.5 0 4.144531-3.359374 7.5-7.5 7.5zm0 0"/><path d="m199.019531 337.390625h-35.730469c-4.144531 0-7.5-3.359375-7.5-7.503906 0-4.140625 3.355469-7.5 7.5-7.5h35.730469c4.144531 0 7.5 3.359375 7.5 7.5 0 4.144531-3.359375 7.503906-7.5 7.503906zm0 0"/><path d="m98.351562 301.660156h-35.730468c-4.140625 0-7.5-3.359375-7.5-7.5 0-4.144531 3.359375-7.503906 7.5-7.503906h35.730468c4.144532 0 7.5 3.359375 7.5 7.503906 0 4.140625-3.355468 7.5-7.5 7.5zm0 0"/><path d="m81.148438 367.625h-49.105469c-4.140625 0-7.5-3.359375-7.5-7.5 0-4.144531 3.359375-7.503906 7.5-7.503906h49.105469c4.144531 0 7.503906 3.359375 7.503906 7.503906 0 4.140625-3.359375 7.5-7.503906 7.5zm0 0"/><path d="m170.996094 208.207031h-43.679688c-4.144531 0-7.5-3.359375-7.5-7.5s3.355469-7.5 7.5-7.5h43.679688c4.140625 0 7.5 3.359375 7.5 7.5s-3.359375 7.5-7.5 7.5zm0 0"/><path d="m192.988281 428.8125c-3.433593 0-6.527343-2.371094-7.3125-5.859375-.683593-3.039063-1.03125-6.378906-1.03125-9.921875 0-8.832031-10.519531-19.210938-14.203125-22.152344-3.238281-2.582031-3.769531-7.300781-1.183594-10.539062 2.582032-3.238282 7.300782-3.769532 10.539063-1.1875 2.03125 1.621094 19.851563 16.34375 19.851563 33.878906 0 2.4375.222656 4.671875.664062 6.636719.90625 4.039062-1.632812 8.054687-5.675781 8.960937-.550781.125-1.105469.183594-1.648438.183594zm0 0"/><path d="m135.191406 417.527344c-2.261718 0-4.492187-1.019532-5.96875-2.949219l-9.941406-13.027344c-2.515625-3.292969-1.882812-8 1.410156-10.515625 3.289063-2.511718 7.996094-1.878906 10.511719 1.414063l9.945313 13.023437c2.511718 3.292969 1.878906 8-1.414063 10.515625-1.359375 1.035157-2.957031 1.539063-4.542969 1.539063zm0 0"/><path d="m51.390625 467.054688c-4.140625 0-7.5-3.355469-7.5-7.5 0-8.816407 3.296875-17.421876 9.285156-24.222657 2.125-2.410156 3.859375-5.039062 5.160157-7.804687 1.761718-3.75 6.230468-5.363282 9.976562-3.601563 3.75 1.761719 5.363281 6.226563 3.601562 9.976563-1.902343 4.050781-4.417968 7.863281-7.480468 11.339844-3.574219 4.0625-5.542969 9.144531-5.542969 14.3125 0 4.144531-3.355469 7.5-7.5 7.5zm0 0"/><path d="m129.421875 163.546875c-3.582031 0-6.75-2.574219-7.382813-6.21875-.707031-4.082031 2.027344-7.964844 6.109376-8.675781 10.1875-1.765625 17.734374-4.96875 22.183593-8.296875-1.519531-.136719-3.042969-.207031-4.570312-.207031h-67.664063c-1.53125 0-3.054687.070312-4.574218.207031 4.453124 3.328125 11.996093 6.53125 22.1875 8.296875 4.082031.710937 6.816406 4.589844 6.109374 8.671875-.710937 4.082031-4.59375 6.8125-8.671874 6.109375-22.601563-3.917969-37.597657-14.441406-39.136719-27.457032-.429688-3.617187 1.800781-7.019531 5.289062-8.066406 6.109375-1.832031 12.433594-2.761718 18.796875-2.761718h67.664063c6.363281 0 12.6875.929687 18.796875 2.761718 3.488281 1.046875 5.71875 4.449219 5.292968 8.066406-1.542968 13.015626-16.539062 23.535157-39.136718 27.457032-.4375.074218-.867188.113281-1.292969.113281zm0 0"/><path d="m111.929688 512c-11.449219 0-21.585938-6.695312-27.117188-17.90625-23.703125-48.066406-65.574219-147.601562-79.707031-274.203125-2.949219-26.390625 4.910156-52.199219 21.554687-70.8125 13.808594-15.429687 32.074219-23.929687 51.4375-23.929687h67.664063c19.367187 0 37.632812 8.5 51.4375 23.929687 16.648437 18.609375 24.507812 44.421875 21.558593 70.8125-1.109374 9.949219-2.4375 20.078125-3.9375 30.113281-.613281 4.097656-4.433593 6.921875-8.527343 6.304688-4.097657-.613282-6.921875-4.429688-6.308594-8.527344 1.476563-9.847656 2.777344-19.792969 3.867187-29.554688 2.472657-22.15625-4.023437-43.710937-17.832031-59.144531-10.917969-12.210937-25.214843-18.933593-40.253906-18.933593h-67.664063c-15.039062 0-29.335937 6.722656-40.257812 18.933593-13.804688 15.433594-20.304688 36.988281-17.832031 59.144531 13.882812 124.328126 54.988281 222.046876 78.253906 269.230469 2.949219 5.976563 8.054687 9.542969 13.664063 9.542969 5.613281 0 10.71875-3.566406 13.667968-9.542969 21.523438-43.652343 50.867188-114.652343 68.421875-204.992187.789063-4.066406 4.726563-6.71875 8.792969-5.933594 4.066406.789062 6.722656 4.726562 5.933594 8.792969-17.871094 91.972656-47.765625 164.292969-69.695313 208.769531-5.53125 11.210938-15.671875 17.90625-27.121093 17.90625zm0 0"/></svg>