<?xml version="1.0" encoding="iso-8859-1"?>
<!-- Generator: Adobe Illustrator 19.0.0, SVG Export Plug-In . SVG Version: 6.00 Build 0)  -->
<svg xmlns="http://www.w3.org/2000/svg" xmlns:xlink="http://www.w3.org/1999/xlink" version="1.1" id="Layer_1" x="0px" y="0px" viewBox="0 0 505 505" style="enable-background:new 0 0 505 505;" xml:space="preserve" width="512" height="512">
<g>
	<path d="M467.585,229.035l-23.174-29.881V95.2c0-4.142-3.358-7.5-7.5-7.5s-7.5,3.358-7.5,7.5v51.438h-102.51V15h94.22   c4.571,0,8.29,3.719,8.29,8.29V65.2c0,4.142,3.358,7.5,7.5,7.5s7.5-3.358,7.5-7.5V23.29c0-12.842-10.448-23.29-23.29-23.29h-320.95   c-12.842,0-23.29,10.448-23.29,23.29v228.223l-36.056,12.845c-2.791,0.994-4.735,3.539-4.961,6.493   c-0.226,2.954,1.308,5.765,3.916,7.172l37.101,20.028V481.71c0,12.842,10.448,23.29,23.29,23.29h21.332c4.142,0,7.5-3.358,7.5-7.5   s-3.358-7.5-7.5-7.5h-21.332c-4.571,0-8.29-3.719-8.29-8.29V298.875l124.722-44.233l144.705,53.784   c0.848,0.315,1.732,0.47,2.612,0.47c1.507,0,3.001-0.454,4.274-1.336l61.217-42.444V481.71c0,4.571-3.719,8.29-8.29,8.29H151.505   c-4.142,0-7.5,3.358-7.5,7.5s3.358,7.5,7.5,7.5h269.616c12.842,0,23.29-10.448,23.29-23.29V254.716l21.521-14.921   c1.692-1.173,2.827-2.99,3.14-5.025C469.384,232.736,468.846,230.662,467.585,229.035z M429.411,161.638v35.385L342.03,239.5   l-15.129-8.551v-69.31H429.411z M255.539,190.614c-1.893-1.07-4.158-1.266-6.208-0.536l-39.94,14.229v-42.668h102.51v60.832   L255.539,190.614z M311.901,146.638h-102.51V15h102.51V146.638z M100.171,15h94.22v131.638H91.881V23.29   C91.881,18.719,95.599,15,100.171,15z M91.881,161.638h102.51v48.012L91.881,246.17V161.638z M362.864,293.002l-124.23-46.174   l14.569-5.167c3.904-1.385,5.946-5.672,4.562-9.575c-1.385-3.904-5.674-5.947-9.576-4.562L85.013,285.395l-23.274-12.564   l189.4-67.474l106.403,60.141c1.166,0.659,2.433,0.972,3.684,0.972c2.616,0,5.157-1.371,6.536-3.811   c2.038-3.606,0.767-8.181-2.839-10.22l-7.03-3.974l76.819-37.341l16.17,20.851L362.864,293.002z"/>
	<path d="M272.383,450.678c16.318,0,31.806-5.632,43.325-17.151c12.678-12.678,18.685-30.391,16.913-49.878   c-1.725-18.974-10.677-37.426-25.207-51.955c-14.529-14.53-32.98-23.481-51.955-25.206c-19.491-1.771-37.2,4.235-49.878,16.913   s-18.685,30.391-16.913,49.878c1.725,18.974,10.677,37.426,25.206,51.955C230.676,442.035,252.167,450.678,272.383,450.678z    M248.879,321.187c1.717,0,3.459,0.08,5.222,0.24c15.487,1.408,30.653,8.821,42.707,20.874s19.467,27.22,20.875,42.707   c1.104,12.146-1.628,23.297-7.755,32.133l-87.95-87.95C229.53,323.954,238.768,321.187,248.879,321.187z M211.362,339.788   l87.954,87.953c-20.599,14.271-52.536,9.184-74.834-13.114c-12.053-12.053-19.466-27.22-20.875-42.707   C202.503,359.775,205.235,348.624,211.362,339.788z"/>
</g>















</svg>
