<?xml version="1.0" encoding="iso-8859-1"?>
<!-- Generator: Adobe Illustrator 19.0.0, SVG Export Plug-In . SVG Version: 6.00 Build 0)  -->
<svg version="1.1" id="Layer_1" xmlns="http://www.w3.org/2000/svg" xmlns:xlink="http://www.w3.org/1999/xlink" x="0px" y="0px"
	 viewBox="0 0 512.001 512.001" style="enable-background:new 0 0 512.001 512.001;" xml:space="preserve">
<g>
	<g>
		<g>
			<path d="M179.281,8.794c-5.186-2.728-11.413-2.359-16.244,0.964c-42.75,29.411-68.272,77.95-68.272,129.84v75.272
				c0,19.158,11.032,35.778,27.071,43.872l-11.07,217.046c-0.486,9.524,2.864,18.578,9.434,25.492
				c6.57,6.913,15.441,10.721,24.979,10.721h8.056c9.537,0,18.409-3.808,24.979-10.721c6.52-6.862,9.869-15.83,9.443-25.275
				l0.027-219.823c0.001-0.063,0.01-0.124,0.01-0.185V22.722C187.693,16.859,184.47,11.522,179.281,8.794z M171.685,476.602
				c0.26,5.107-1.535,9.96-5.058,13.667c-3.523,3.707-8.279,5.748-13.392,5.748h-8.056c-5.114,0-9.871-2.042-13.392-5.748
				c-3.523-3.707-5.318-8.56-5.058-13.668l10.866-213.031c2.062,0.265,4.159,0.417,6.291,0.417H171.7l-0.024,212.206
				C171.675,476.33,171.679,476.467,171.685,476.602z M171.711,248.006h-27.826c-18.272,0-33.137-14.865-33.137-33.136v-75.272
				c0-46.471,22.781-89.952,60.963-116.407V248.006z M172.094,22.923l-4.528-6.583l4.543,6.575L172.094,22.923z"/>
			<path d="M394.723,0c-12.413,0-22.512,10.1-22.512,22.513v82.673c0,3.992-3.249,7.24-7.241,7.24s-7.24-3.248-7.24-7.24V22.513
				C357.73,10.1,347.63,0,335.217,0s-22.513,10.1-22.513,22.513v82.673c0,3.992-3.248,7.24-7.24,7.24s-7.241-3.248-7.241-7.24
				V22.513C298.223,10.1,288.125,0,275.711,0c-12.413,0-22.513,10.1-22.513,22.513v107.866c0,34.593,21.537,64.229,51.898,76.263
				l-13.728,269.145c-0.486,9.525,2.864,18.578,9.434,25.492c6.569,6.913,15.44,10.721,24.977,10.721h18.873
				c9.537,0,18.409-3.808,24.977-10.721c6.57-6.914,9.921-15.966,9.434-25.491l-13.726-269.145
				c30.36-12.035,51.897-41.672,51.897-76.263V22.513C417.234,10.1,407.136,0,394.723,0z M358.046,490.269
				c-3.523,3.707-8.279,5.748-13.392,5.748h-18.873c-5.114,0-9.871-2.042-13.392-5.748c-3.521-3.707-5.318-8.56-5.058-13.668
				l13.542-265.486c4.662,0.826,9.45,1.282,14.345,1.282c4.896,0,9.684-0.456,14.346-1.282l13.54,265.487
				C363.364,481.709,361.568,486.562,358.046,490.269z M401.252,130.379c0,36.412-29.624,66.035-66.036,66.035
				c-36.412,0-66.036-29.624-66.036-66.035V22.513c0-3.6,2.929-6.53,6.53-6.53c3.6,0,6.529,2.93,6.529,6.53v82.673
				c0,12.805,10.417,23.223,23.224,23.223c12.805,0,23.223-10.417,23.223-23.223V22.513c0-3.6,2.929-6.53,6.53-6.53
				c3.601,0,6.53,2.93,6.53,6.53v82.673c0,12.805,10.417,23.223,23.223,23.223c12.806,0,23.224-10.417,23.224-23.223V22.513
				c0-3.6,2.929-6.53,6.529-6.53c3.601,0,6.53,2.93,6.53,6.53V130.379z"/>
		</g>
	</g>
</g>
<g>
</g>
<g>
</g>
<g>
</g>
<g>
</g>
<g>
</g>
<g>
</g>
<g>
</g>
<g>
</g>
<g>
</g>
<g>
</g>
<g>
</g>
<g>
</g>
<g>
</g>
<g>
</g>
<g>
</g>
</svg>
