<svg height="511pt" viewBox="0 -16 511.99205 511" width="511pt" xmlns="http://www.w3.org/2000/svg"><path d="m87.488281 169.074219c-12.550781 0-22.757812-10.210938-22.757812-22.761719s10.207031-22.757812 22.757812-22.757812 22.761719 10.207031 22.761719 22.757812-10.210938 22.761719-22.761719 22.761719zm0-30.519531c-4.277343 0-7.757812 3.480468-7.757812 7.757812 0 4.28125 3.480469 7.761719 7.757812 7.761719 4.28125 0 7.761719-3.480469 7.761719-7.761719 0-4.277344-3.484375-7.757812-7.761719-7.757812zm0 0"/><path d="m147.339844 64.578125c-2.410156 0-4.722656-1.164063-6.148438-3.203125-1.808594-2.589844-1.804687-6.039062.019532-8.621094 22.050781-31.261718 56.363281-50.257812 94.144531-52.109375 13.269531-.64843725 26.40625.8125 39.054687 4.339844 7.828125 2.179687 13.59375 8.207031 15.421875 16.125 1.828125 7.898437-.8125 16.164063-6.894531 21.5625-5.539062 4.917969-10.585938 10.425781-15 16.367187-1.695312 2.28125-4.539062 3.40625-7.332031 2.910157-18.3125-3.253907-37.144531-4.90625-55.976563-4.90625-18.824218 0-37.441406 2.449219-55.335937 7.277343-.648438.171876-1.304688.257813-1.953125.257813zm57.289062-22.535156c18.171875 0 36.351563 1.46875 54.109375 4.371093 4.316407-5.367187 9.089844-10.386718 14.238281-14.957031 2-1.777343 2.839844-4.382812 2.238282-6.96875-.273438-1.191406-1.296875-4.070312-4.835938-5.054687-11.097656-3.097656-22.632812-4.375-34.292968-3.804688-25.921876 1.273438-49.996094 11.761719-68.523438 29.417969 12.1875-1.996094 24.585938-3.003906 37.066406-3.003906zm0 0"/><path d="m112.667969 444.605469c-.464844 0-.933594-.042969-1.398438-.132813-51.285156-9.703125-85.667969-34.28125-98.070312-44.398437-3.164063-2.578125-5.125-6.394531-5.382813-10.464844-.257812-4.058594 1.199219-8.078125 4.003906-11.03125l5.5625-5.855469c-4.339843-5.125-8.425781-10.3125-12.160156-15.449218-6.960937-9.566407-6.960937-22.421876 0-31.988282 14.125-19.414062 44.917969-55.722656 92.449219-80.78125 3.027344-1.597656 6.757813-.9375 9.054687 1.597656 26.152344 28.867188 40.554688 66.230469 40.554688 105.210938 0 32.472656-9.847656 63.632812-28.484375 90.109375-1.417969 2.019531-3.71875 3.183594-6.128906 3.183594zm-89.734375-55.945313c11.324218 9.191406 41.421875 30.558594 86.324218 40.109375 15.078126-23.042969 23.023438-49.722656 23.023438-77.460937 0-33.285156-11.613281-65.265625-32.820312-90.707032-41.902344 23.484376-69.273438 55.867188-82.109376 73.507813-3.121093 4.289063-3.121093 10.050781 0 14.339844 3.84375 5.28125 8.085938 10.636719 12.617188 15.917969 4.339844 5.058593 4.15625 12.511718-.421875 17.332031zm-4.347656-14.527344h.007812zm0 0"/><path d="m87.488281 344.917969c-12.550781 0-22.757812-10.210938-22.757812-22.761719 0-12.546875 10.207031-22.757812 22.757812-22.757812s22.761719 10.210937 22.761719 22.757812c0 12.550781-10.210938 22.761719-22.761719 22.761719zm0-30.519531c-4.277343 0-7.757812 3.480468-7.757812 7.757812 0 4.28125 3.480469 7.761719 7.757812 7.761719 4.28125 0 7.761719-3.480469 7.761719-7.761719 0-4.277344-3.484375-7.757812-7.761719-7.757812zm0 0"/><path d="m300.199219 479.835938c-20.148438 0-39.789063-6.839844-55.910157-19.820313-2.335937-1.878906-3.324218-4.964844-2.523437-7.851563.804687-2.882812 3.246094-5.015624 6.214844-5.421874 25.324219-3.453126 50.222656-10 74.011719-19.460938 2.605468-1.039062 5.585937-.527344 7.699218 1.316406 4.070313 3.546875 8.488282 6.644532 13.136719 9.199219 5.761719 3.167969 9.328125 9.210937 9.304687 15.773437-.023437 6.574219-3.484374 12.363282-9.261718 15.492188-7.117188 3.847656-14.753906 6.714844-22.699219 8.519531-6.640625 1.511719-13.335937 2.253907-19.972656 2.253907zm-30.351563-21.554688c14.578125 6.589844 30.972656 8.320312 46.996094 4.675781 6.621094-1.503906 12.972656-3.890625 18.890625-7.085937 1.152344-.625 1.394531-1.621094 1.398437-2.347656 0-.523438-.144531-1.820313-1.53125-2.582032-4.261718-2.34375-8.355468-5.058594-12.222656-8.101562-17.382812 6.644531-35.304687 11.8125-53.53125 15.441406zm0 0"/><path d="m147.339844 240.421875c-2.410156 0-4.722656-1.164063-6.148438-3.203125-1.808594-2.589844-1.804687-6.039062.019532-8.621094 22.050781-31.261718 56.363281-50.253906 94.144531-52.105468 13.265625-.648438 26.40625.808593 39.054687 4.335937 7.828125 2.183594 13.59375 8.210937 15.421875 16.125 1.828125 7.902344-.8125 16.164063-6.894531 21.5625-5.535156 4.921875-10.585938 10.425781-15 16.367187-1.695312 2.28125-4.53125 3.410157-7.332031 2.910157-18.3125-3.253907-37.148438-4.90625-55.976563-4.90625-18.820312 0-37.4375 2.449219-55.335937 7.277343-.648438.171876-1.304688.257813-1.953125.257813zm57.289062-22.535156c18.167969 0 36.351563 1.46875 54.109375 4.371093 4.316407-5.367187 9.089844-10.386718 14.238281-14.957031 2-1.777343 2.835938-4.382812 2.238282-6.96875-.273438-1.191406-1.296875-4.070312-4.835938-5.054687-11.097656-3.097656-22.632812-4.378906-34.292968-3.804688-25.921876 1.269532-50 11.761719-68.523438 29.417969 12.1875-1.996094 24.585938-3.003906 37.066406-3.003906zm0 0"/><path d="m171.035156 408.257812c-1.046875 0-2.113281-.222656-3.128906-.691406-3.761719-1.730468-5.410156-6.1875-3.675781-9.949218 7.347656-15.964844 11.074219-33.027344 11.074219-50.714844 0-22.144532-6.019532-43.820313-17.410157-62.6875-2.140625-3.546875-1-8.15625 2.546875-10.296875s8.15625-1 10.296875 2.542969c12.800781 21.207031 19.566407 45.5625 19.566407 70.441406 0 19.867187-4.1875 39.039062-12.449219 56.988281-1.265625 2.746094-3.980469 4.367187-6.820313 4.367187zm0 0"/><path d="m215.125 397.980469c-.84375 0-1.699219-.144531-2.539062-.445313-3.894532-1.398437-5.921876-5.695312-4.519532-9.59375 4.722656-13.148437 7.117188-26.957031 7.117188-41.042968 0-18.332032-3.984375-35.949219-11.839844-52.367188-1.789062-3.734375-.210938-8.214844 3.527344-10.003906 3.738281-1.789063 8.214844-.207032 10.003906 3.527344 8.832031 18.453124 13.308594 38.253906 13.308594 58.84375 0 15.820312-2.691406 31.335937-8 46.117187-1.101563 3.058594-3.984375 4.964844-7.058594 4.964844zm0 0"/><path d="m91.894531 263.789062c-.703125 0-1.40625-.097656-2.089843-.296874-38.441407-11.144532-64.496094-29.382813-76.605469-39.261719-3.164063-2.582031-5.125-6.394531-5.382813-10.464844-.257812-4.058594 1.199219-8.082031 4.003906-11.03125l5.5625-5.855469c-4.34375-5.128906-8.429687-10.316406-12.160156-15.449218-6.964844-9.566407-6.964844-22.421876 0-31.988282 14.125-19.414062 44.921875-55.722656 92.449219-80.785156 3.03125-1.597656 6.757813-.9375 9.054687 1.601562 26.152344 28.867188 40.554688 66.230469 40.554688 105.207032 0 23.804687-5.226562 46.699218-15.535156 68.050781-.824219 1.710937-2.269532 3.042969-4.039063 3.730469-10.902343 4.234375-21.675781 9.457031-32.023437 15.515625-1.160156.679687-2.46875 1.027343-3.789063 1.027343zm-68.960937-50.976562c11.007812 8.9375 34.054687 24.988281 68.007812 35.367188 9.269532-5.261719 18.839844-9.890626 28.527344-13.804688 8.503906-18.550781 12.8125-38.355469 12.8125-58.910156 0-33.285156-11.613281-65.269532-32.820312-90.707032-41.898438 23.484376-69.273438 55.867188-82.109376 73.507813-3.121093 4.289063-3.121093 10.050781 0 14.339844 3.839844 5.277343 8.085938 10.632812 12.617188 15.914062 4.339844 5.058594 4.15625 12.511719-.421875 17.332031zm0 0"/><path d="m178.957031 209.941406c-.605469 0-1.21875-.074218-1.828125-.226562-4.019531-1.007813-6.460937-5.082032-5.453125-9.097656 2.40625-9.613282 3.628907-19.558594 3.628907-29.5625 0-22.144532-6.023438-43.820313-17.410157-62.6875-2.140625-3.546876-1.003906-8.15625 2.542969-10.296876 3.546875-2.140624 8.15625-1 10.296875 2.542969 12.804687 21.207031 19.570313 45.5625 19.570313 70.441407 0 11.230468-1.375 22.402343-4.078126 33.203124-.855468 3.410157-3.910156 5.683594-7.269531 5.683594zm0 0"/><path d="m221.890625 193.015625c-.277344 0-.558594-.015625-.84375-.046875-4.117187-.460938-7.082031-4.171875-6.621094-8.289062.503907-4.484376.757813-9.070313.757813-13.625 0-18.332032-3.984375-35.953126-11.839844-52.367188-1.789062-3.738281-.210938-8.214844 3.527344-10.003906 3.734375-1.789063 8.210937-.207032 10 3.527344 8.832031 18.453124 13.3125 38.25 13.3125 58.84375 0 5.109374-.285156 10.253906-.847656 15.292968-.429688 3.832032-3.675782 6.667969-7.445313 6.667969zm0 0"/><path d="m211.882812 464.582031c-4.0625 0-7.402343-3.25-7.492187-7.335937-.089844-4.144532 3.191406-7.574219 7.332031-7.664063 101.027344-2.199219 168.003906-50.046875 192.109375-70.511719 6.972657-5.925781 16.601563-7.527343 25.128907-4.199218l64.996093 25.386718-25.75-48.140624c-3.628906-6.785157-3.628906-14.890626 0-21.675782l25.75-48.140625-64.992187 25.386719c-8.527344 3.328125-18.15625 1.722656-25.132813-4.199219-19.507812-16.5625-91.519531-70.601562-199.203125-70.601562-102.554687 0-165.132812 70.789062-187.277344 101.222656-3.121093 4.289063-3.121093 10.050781 0 14.339844 3.84375 5.28125 8.089844 10.636719 12.617188 15.917969 4.339844 5.058593 4.160156 12.511718-.421875 17.332031l-6.613281 6.960937c11.734375 9.523438 43.601562 32.101563 91.191406 41.089844.597656.113281 1.179688.296875 1.730469.550781 19.773437 9.0625 40.625 15.011719 61.964843 17.691407 4.113282.515624 7.027344 4.265624 6.511719 8.375-.515625 4.109374-4.269531 7.027343-8.375 6.507812-22.5625-2.832031-44.601562-9.074219-65.515625-18.558594-50.816406-9.808594-84.898437-34.175781-97.242187-44.238281-3.164063-2.582031-5.125-6.398437-5.382813-10.46875-.257812-4.058594 1.199219-8.078125 4.003906-11.027344l5.5625-5.859375c-4.339843-5.125-8.425781-10.3125-12.160156-15.449218-6.960937-9.566407-6.960937-22.421876 0-31.988282 10.355469-14.230468 32.746094-41.589844 66.351563-64.910156 40.632812-28.191406 85.398437-42.484375 133.054687-42.484375 47.898438 0 94.160156 9.976563 137.5 29.652344 35.511719 16.125 59.984375 34.808593 71.414063 44.511719 2.761719 2.347656 6.582031 2.980468 9.964843 1.660156l71.5625-27.953125c4.890626-1.90625 10.300782-.605469 13.78125 3.320312 3.484376 3.925781 4.132813 9.449219 1.65625 14.074219l-29.074218 54.359375c-1.257813 2.355469-1.261719 5.171875 0 7.527344l29.074218 54.359375c2.476563 4.625 1.824219 10.148437-1.65625 14.074218-3.484374 3.925782-8.894531 5.230469-13.78125 3.320313l-71.5625-27.953125c-3.386718-1.320312-7.207031-.683594-9.96875 1.660156-11.0625 9.394532-34.742187 27.523438-69.054687 43.425782-41.722656 19.332031-86.28125 29.644531-132.433594 30.648437-.054687.003906-.109375.003906-.167969.003906zm0 0"/><path d="m91.890625 263.792969c-.699219 0-1.402344-.097657-2.085937-.296875-38.433594-11.144532-64.492188-29.382813-76.605469-39.265625-3.164063-2.578125-5.125-6.394531-5.382813-10.464844-.257812-4.058594 1.199219-8.078125 4.003906-11.03125l5.5625-5.855469c-4.34375-5.128906-8.429687-10.320312-12.160156-15.449218-6.960937-9.566407-6.960937-22.421876 0-31.988282 10.351563-14.230468 32.746094-41.589844 66.351563-64.910156 40.628906-28.191406 85.394531-42.488281 133.050781-42.488281 47.898438 0 94.160156 9.976562 137.503906 29.65625 35.507813 16.121093 59.980469 34.808593 71.410156 44.511719 2.765626 2.34375 6.582032 2.980468 9.964844 1.660156l71.566406-27.953125c4.890626-1.910157 10.296876-.609375 13.78125 3.316406 3.480469 3.925781 4.132813 9.453125 1.65625 14.078125l-21.554687 40.296875c-1.953125 3.652344-6.5 5.03125-10.148437 3.078125-3.652344-1.953125-5.03125-6.5-3.078126-10.152344l18.230469-34.078125-64.996093 25.386719c-8.527344 3.332031-18.15625 1.722656-25.128907-4.199219-19.507812-16.5625-91.523437-70.601562-199.207031-70.601562-102.550781 0-165.128906 70.789062-187.273438 101.222656-3.121093 4.289063-3.121093 10.050781 0 14.339844 3.835938 5.277343 8.082032 10.632812 12.617188 15.917969 4.339844 5.058593 4.15625 12.511718-.421875 17.332031l-6.613281 6.960937c11.011718 8.9375 34.0625 24.992188 68.007812 35.367188 16.597656-9.425782 34.015625-16.742188 51.855469-21.785156 22.089844-29.949219 55.671875-48.097657 92.554687-49.902344 13.265626-.648438 26.40625.808594 39.058594 4.335937 7.824219 2.183594 13.589844 8.210938 15.417969 16.125 1.828125 7.902344-.8125 16.164063-6.890625 21.5625-2.496094 2.214844-4.890625 4.550781-7.171875 6.988281 20.851563 4.550782 41.289063 11.136719 60.949219 19.644532 33.371094-15.261719 56.273437-32.71875 67.117187-41.925782 6.96875-5.917968 16.601563-7.527343 25.128907-4.195312l64.996093 25.386719-22.359375-41.800781c-1.953125-3.652344-.574218-8.199219 3.078125-10.152344 3.652344-1.953125 8.195313-.574219 10.148438 3.078125l25.683593 48.019531c2.476563 4.625 1.824219 10.152344-1.65625 14.074219-3.484374 3.925781-8.894531 5.226562-13.78125 3.320312l-71.5625-27.957031c-3.386718-1.320312-7.207031-.683594-9.96875 1.664062-11.777343 10-37.015624 29.214844-73.730468 45.546876-1.941406.863281-4.15625.863281-6.097656 0-23.402344-10.410157-48-17.949219-73.105469-22.414063-2.558594-.457031-4.703125-2.203125-5.660157-4.617187-.957031-2.417969-.597656-5.15625.953126-7.242188 5.027343-6.765625 10.773437-13.035156 17.078124-18.632812 2-1.777344 2.839844-4.382813 2.238282-6.96875-.273438-1.191407-1.296875-4.070313-4.832032-5.054688-11.101562-3.097656-22.640624-4.375-34.292968-3.804688-32.992188 1.617188-62.988282 18.160157-82.367188 45.410157-.921875 1.480469-2.363281 2.648437-4.160156 3.199219-.082031.027343-.164062.050781-.25.074218-18.488281 4.984375-36.53125 12.589844-53.628906 22.605469-1.160156.675781-2.472656 1.027344-3.792969 1.027344zm0 0"/></svg>