<svg height="480pt" viewBox="-40 0 480 480" width="480pt" xmlns="http://www.w3.org/2000/svg"><path d="m264 8h-224c-17.671875 0-32 14.328125-32 32v400c0 17.671875 14.328125 32 32 32h224c17.671875 0 32-14.328125 32-32v-16h24v32c.027344 8.824219 7.175781 15.972656 16 16h16c8.824219-.027344 15.972656-7.175781 16-16v-432c-.027344-8.824219-7.175781-15.972656-16-16h-16c-8.824219.027344-15.972656 7.175781-16 16v376h-24v-360c0-17.671875-14.328125-32-32-32zm8 168v256c-.027344 8.824219-7.175781 15.972656-16 16h-208c-8.824219-.027344-15.972656-7.175781-16-16v-384c.027344-8.824219 7.175781-15.972656 16-16h208c8.824219.027344 15.972656 7.175781 16 16zm0 0" fill="#9bc9ff"/><path d="m392 272v-64l-24-8v80zm0 0" fill="#9bc9ff"/><path d="m216 296 8-80h-48l8 80zm0 0" fill="#9bc9ff"/><path d="m128 296 8-80h-48l8 80zm0 0" fill="#9bc9ff"/><g fill="#1e81ce"><path d="m352 480h-16c-13.253906 0-24-10.746094-24-24v-24h-8v8c-.027344 22.082031-17.917969 39.972656-40 40h-224c-22.082031-.027344-39.9726562-17.917969-40-40v-400c.0273438-22.082031 17.917969-39.9726562 40-40h224c22.082031.0273438 39.972656 17.917969 40 40v352h8v-368c0-13.253906 10.746094-24 24-24h16c13.253906 0 24 10.746094 24 24v432c0 13.253906-10.746094 24-24 24zm-56-64h24c4.417969 0 8 3.582031 8 8v32c0 4.417969 3.582031 8 8 8h16c4.417969 0 8-3.582031 8-8v-432c0-4.417969-3.582031-8-8-8h-16c-4.417969 0-8 3.582031-8 8v376c0 4.417969-3.582031 8-8 8h-24c-4.417969 0-8-3.582031-8-8v-360c0-13.253906-10.746094-24-24-24h-224c-13.253906 0-24 10.746094-24 24v400c0 13.253906 10.746094 24 24 24h224c13.253906 0 24-10.746094 24-24v-16c0-4.417969 3.582031-8 8-8zm-40 40h-208c-13.253906 0-24-10.746094-24-24v-384c0-13.253906 10.746094-24 24-24h208c13.253906 0 24 10.746094 24 24v384c0 13.253906-10.746094 24-24 24zm-208-416c-4.417969 0-8 3.582031-8 8v384c0 4.417969 3.582031 8 8 8h208c4.417969 0 8-3.582031 8-8v-384c0-4.417969-3.582031-8-8-8zm0 0"/><path d="m256 456h-208c-13.253906 0-24-10.746094-24-24v-384c0-13.253906 10.746094-24 24-24h208c13.253906 0 24 10.746094 24 24v384c0 13.253906-10.746094 24-24 24zm-208-416c-4.417969 0-8 3.582031-8 8v384c0 4.417969 3.582031 8 8 8h208c4.417969 0 8-3.582031 8-8v-384c0-4.417969-3.582031-8-8-8zm0 0"/><path d="m256 456h-208c-13.253906 0-24-10.746094-24-24v-384c0-13.253906 10.746094-24 24-24h208c13.253906 0 24 10.746094 24 24v384c0 13.253906-10.746094 24-24 24zm-208-416c-4.417969 0-8 3.582031-8 8v384c0 4.417969 3.582031 8 8 8h208c4.417969 0 8-3.582031 8-8v-384c0-4.417969-3.582031-8-8-8zm0 0"/><path d="m368 288c-4.417969 0-8-3.582031-8-8v-80c0-2.570312 1.238281-4.984375 3.324219-6.484375 2.085937-1.503906 4.765625-1.910156 7.203125-1.101563l24 8c3.265625 1.089844 5.46875 4.144532 5.472656 7.585938v64c-.003906 3.441406-2.207031 6.496094-5.472656 7.585938l-24 8c-.8125.273437-1.667969.414062-2.527344.414062zm8-76.894531v57.789062l8-2.664062v-52.460938zm0 0"/><path d="m272 320h-240c-4.417969 0-8-3.582031-8-8s3.582031-8 8-8h240c4.417969 0 8 3.582031 8 8s-3.582031 8-8 8zm0 0"/><path d="m272 184h-240c-4.417969 0-8-3.582031-8-8s3.582031-8 8-8h240c4.417969 0 8 3.582031 8 8s-3.582031 8-8 8zm0 0"/><path d="m88 72h-24c-4.417969 0-8-3.582031-8-8s3.582031-8 8-8h24c4.417969 0 8 3.582031 8 8s-3.582031 8-8 8zm0 0"/><path d="m216 304h-32c-4.125.019531-7.585938-3.097656-8-7.199219l-8-80c-.226562-2.257812.515625-4.503906 2.039062-6.183593 1.527344-1.675782 3.691407-2.628907 5.960938-2.617188h48c2.261719 0 4.417969.957031 5.933594 2.632812 1.515625 1.675782 2.253906 3.917969 2.027344 6.167969l-8 80c-.410157 4.085938-3.851563 7.199219-7.960938 7.199219zm-24.761719-16h17.5625l6.398438-64h-30.320313zm0 0"/><path d="m144 224h-64c-4.417969 0-8-3.582031-8-8s3.582031-8 8-8h64c4.417969 0 8 3.582031 8 8s-3.582031 8-8 8zm0 0"/><path d="m128 304h-32c-4.125.019531-7.585938-3.097656-8-7.199219l-8-80c-.226562-2.257812.515625-4.503906 2.039062-6.183593 1.527344-1.675782 3.691407-2.628907 5.960938-2.617188h48c2.269531-.011719 4.433594.941406 5.960938 2.617188 1.523437 1.679687 2.265624 3.925781 2.039062 6.183593l-8 80c-.414062 4.101563-3.875 7.21875-8 7.199219zm-24.761719-16h17.5625l6.398438-64h-30.320313zm0 0"/><path d="m240 112c-4.417969 0-8-3.582031-8-8v-24c0-4.417969-3.582031-8-8-8h-104c-4.417969 0-8-3.582031-8-8s3.582031-8 8-8h104c13.253906 0 24 10.746094 24 24v24c0 4.417969-3.582031 8-8 8zm0 0"/></g></svg>