<svg height="512pt" viewBox="-6 0 511 512" width="512pt" xmlns="http://www.w3.org/2000/svg"><path d="m355 35h-307c-6.894531 0-12.5 5.605469-12.5 12.5v383c0 6.894531 5.605469 12.5 12.5 12.5h307c6.894531 0 12.5-5.605469 12.5-12.5v-383c0-6.894531-5.605469-12.5-12.5-12.5zm-2.5 15v181.5h-34.25v-42.5c0-9.648438-7.851562-17.5-17.5-17.5h-103v-35.5c0-9.648438-7.851562-17.5-17.5-17.5h-78c-9.648438 0-17.5 7.851562-17.5 17.5v95.5h-34.25v-181.5zm-252.75 181.5v-95.5c0-1.378906 1.121094-2.5 2.5-2.5h78c1.378906 0 2.5 1.121094 2.5 2.5v95.5zm98-45h103c1.378906 0 2.5 1.121094 2.5 2.5v42.5h-105.5zm-60.34375 241.5c-14.289062 0-26.757812-9.164062-31.019531-22.808594l-8.183594-26.191406h206.597656l-8.1875 26.191406c-4.261719 13.644532-16.730469 22.808594-31.019531 22.808594zm162.875 0c4.765625-5.101562 8.453125-11.308594 10.648438-18.332031l9.199218-29.441407c1.183594-3.777343.484375-7.941406-1.859375-11.128906-2.34375-3.191406-6.109375-5.097656-10.070312-5.097656h-213.398438c-3.960937 0-7.726562 1.90625-10.070312 5.097656-2.347657 3.1875-3.042969 7.351563-1.859375 11.132813l9.199218 29.4375c2.195313 7.023437 5.882813 13.230469 10.648438 18.332031h-52.21875v-181.5h302v20h-274.5c-4.140625 0-7.5 3.355469-7.5 7.5s3.359375 7.5 7.5 7.5h274.5v146.5zm0 0"/><path d="m458.5 147.597656v-112.097656c0-19.574219-15.925781-35.5-35.5-35.5-11.667969 0-22.035156 5.660156-28.511719 14.375-6.871093-8.742188-17.53125-14.375-29.488281-14.375h-327c-20.679688 0-37.5 16.820312-37.5 37.5v403c0 20.679688 16.820312 37.5 37.5 37.5h12.5v3c0 17.09375 13.90625 31 31 31s31-13.90625 31-31v-3h192v2.640625c0 17.292969 13.960938 31.359375 31.125 31.359375h.125c16.957031 0 30.75-14.066406 30.75-31.359375v-2.679687c11.347656-.449219 21.40625-5.960938 27.988281-14.335938 6.476563 8.714844 16.84375 14.375 28.511719 14.375 19.574219 0 35.5-15.925781 35.5-35.5v-24.5c0-4.144531-3.359375-7.5-7.5-7.5s-7.5 3.355469-7.5 7.5v24.5c0 11.304688-9.195312 20.5-20.5 20.5s-20.5-9.195312-20.5-20.5v-407c0-11.304688 9.195312-20.5 20.5-20.5s20.5 9.195312 20.5 20.5v347.5c0 4.144531 3.359375 7.5 7.5 7.5s7.5-3.355469 7.5-7.5v-52.597656c22.640625-3.605469 40-23.261719 40-46.902344v-89c0-23.640625-17.359375-43.296875-40-46.902344zm-361 333.402344c0 8.820312-7.179688 16-16 16s-16-7.179688-16-16v-3h32zm254-.359375c0 9.023437-7.066406 16.359375-15.75 16.359375h-.125c-8.742188 0-16.125-7.492188-16.125-16.359375v-2.640625h32zm13.5-17.640625h-327c-12.40625 0-22.5-10.09375-22.5-22.5v-403c0-12.40625 10.09375-22.5 22.5-22.5h327c12.40625 0 22.5 10.09375 22.5 22.5v403c0 12.40625-10.09375 22.5-22.5 22.5zm118.5-179.5c0 15.339844-10.683594 28.222656-25 31.617188v-152.234376c14.316406 3.394532 25 16.277344 25 31.617188zm0 0"/></svg>