<svg height="511pt" viewBox="-135 1 511 511.969" width="511pt" xmlns="http://www.w3.org/2000/svg"><path d="m115.714844 278.972656h-26.929688c-36.0625 0-65.402344-29.339844-65.402344-65.402344v-26.933593c0-6.96875 5.671876-12.640625 12.644532-12.640625h26.933594c36.0625 0 65.402343 29.335937 65.402343 65.398437v26.933594c0 6.972656-5.675781 12.644531-12.648437 12.644531zm-77.328125-89.976562v24.574218c0 27.792969 22.605469 50.402344 50.398437 50.402344h24.574219v-24.578125c0-27.789062-22.605469-50.398437-50.398437-50.398437zm0 0"/><path d="m152.9375 278.972656h-26.933594c-6.972656 0-12.644531-5.671875-12.644531-12.644531v-26.933594c0-36.0625 29.339844-65.398437 65.398437-65.398437h26.9375c6.96875 0 12.644532 5.671875 12.644532 12.640625v26.933593c0 36.0625-29.339844 65.402344-65.402344 65.402344zm-24.578125-15h24.578125c27.789062 0 50.398438-22.609375 50.398438-50.402344v-24.574218h-24.578126c-27.789062 0-50.398437 22.609375-50.398437 50.398437zm77.335937-74.976562h.007813zm0 0"/><path d="m115.253906 377.058594h-29.359375c-38.9375 0-70.617187-31.679688-70.617187-70.617188v-29.363281c0-7.226563 5.878906-13.105469 13.105468-13.105469h29.363282c38.9375 0 70.613281 31.679688 70.617187 70.617188v29.359375c0 7.226562-5.882812 13.109375-13.109375 13.109375zm-84.976562-98.085938v27.46875c0 30.664063 24.949218 55.613282 55.617187 55.613282h27.46875v-27.464844c-.003906-30.667969-24.953125-55.617188-55.617187-55.617188zm0 0"/><path d="m155.828125 377.058594h-29.359375c-7.226562 0-13.109375-5.882813-13.109375-13.109375v-29.359375c0-38.941406 31.679687-70.617188 70.617187-70.617188h29.363282c7.226562 0 13.105468 5.878906 13.105468 13.105469v29.363281c0 38.9375-31.679687 70.617188-70.617187 70.617188zm-27.46875-15.003906h27.46875c30.667969 0 55.617187-24.949219 55.617187-55.613282v-27.46875h-27.46875c-30.667968 0-55.617187 24.949219-55.617187 55.617188zm84.980469-83.082032h.007812zm0 0"/><path d="m114.410156 489.925781h-33.785156c-44.1875 0-80.132812-35.949219-80.132812-80.132812v-33.785157c0-7.691406 6.261718-13.953124 13.953124-13.953124h33.785157c44.183593 0 80.132812 35.949218 80.132812 80.132812v33.785156c0 7.691406-6.261719 13.953125-13.953125 13.953125zm-98.917968-112.871093v32.738281c0 35.910156 29.21875 65.128906 65.132812 65.128906h32.738281v-32.734375c-.003906-35.914062-29.21875-65.132812-65.132812-65.132812zm0 0"/><path d="m120.859375 512c-4.140625 0-7.5-3.355469-7.5-7.5v-293.742188c0-4.144531 3.359375-7.5 7.5-7.5 4.144531 0 7.5 3.355469 7.5 7.5v293.742188c.003906 4.140625-3.355469 7.5-7.5 7.5zm0 0"/><path d="m30.882812 159.605469c-4.140624 0-7.5-3.359375-7.5-7.5v-75.949219c0-4.140625 3.359376-7.5 7.5-7.5 4.144532 0 7.503907 3.359375 7.503907 7.5v75.949219c0 4.140625-3.359375 7.5-7.503907 7.5zm0 0"/><path d="m210.839844 159.605469c-4.144532 0-7.5-3.359375-7.5-7.5v-75.949219c0-4.140625 3.355468-7.5 7.5-7.5 4.140625 0 7.5 3.359375 7.5 7.5v75.949219c0 4.140625-3.359375 7.5-7.5 7.5zm0 0"/><path d="m120.859375 45.988281c-4.140625 0-7.5-3.359375-7.5-7.5v-30.988281c0-4.140625 3.359375-7.5 7.5-7.5 4.144531 0 7.5 3.359375 7.5 7.5v30.988281c.003906 4.140625-3.355469 7.5-7.5 7.5zm0 0"/><path d="m152.402344 489.925781h-25.089844c-7.695312 0-13.953125-6.261719-13.953125-13.953125v-33.785156c0-44.183594 35.949219-80.132812 80.132813-80.132812h33.78125c7.695312 0 13.953124 6.261718 13.953124 13.953124v33.785157c0 32.664062-20.53125 62.660156-51.085937 74.632812-3.859375 1.515625-8.210937-.386719-9.722656-4.246093-1.511719-3.855469.390625-8.207032 4.246093-9.71875 24.859376-9.742188 41.5625-34.121094 41.5625-60.667969v-32.734375h-32.734374c-35.914063 0-65.132813 29.214844-65.132813 65.128906v32.734375h24.042969c4.140625 0 7.5 3.359375 7.5 7.503906 0 4.140625-3.355469 7.5-7.5 7.5zm0 0"/><path d="m120.859375 218.257812c-4.566406 0-8.941406-1.945312-12.003906-5.339843-19.285157-21.367188-29.476563-47.09375-29.476563-74.402344s10.191406-53.035156 29.476563-74.40625c3.0625-3.390625 7.4375-5.335937 12.003906-5.335937 4.570313 0 8.945313 1.945312 12.003906 5.335937 13.367188 14.808594 22.644531 32.390625 26.835938 50.847656.917969 4.039063-1.613281 8.058594-5.652344 8.976563-4.046875.914062-8.058594-1.613282-8.976563-5.65625-3.625-15.957032-11.695312-31.210938-23.339843-44.117188-.289063-.320312-.632813-.386718-.871094-.386718s-.582031.066406-.871094.386718c-16.753906 18.566406-25.609375 40.820313-25.609375 64.355469s8.855469 45.789063 25.613282 64.355469c.289062.316406.628906.386718.867187.386718s.582031-.070312.871094-.386718c13.683593-15.167969 22.261719-33.230469 24.800781-52.242188.546875-4.105468 4.332031-6.988281 8.425781-6.441406 4.105469.546875 6.992188 4.320312 6.441407 8.425781-2.941407 22.027344-12.808594 42.882813-28.53125 60.308594-3.0625 3.390625-7.4375 5.335937-12.007813 5.335937zm0 0"/></svg>