<svg height="511pt" viewBox="-36 1 511 511.969" width="511pt" xmlns="http://www.w3.org/2000/svg"><path d="m291.550781 512h-73.164062c-4.144531 0-7.503907-3.355469-7.503907-7.5v-341.929688c0-4.140624 3.359376-7.5 7.503907-7.5h140.265625c4.140625 0 7.5 3.359376 7.5 7.5v56.734376c0 4.140624-3.359375 7.5-7.5 7.5h-81.8125l16.5625 270.425781c3.246094.824219 5.648437 3.765625 5.648437 7.269531 0 4.140625-3.359375 7.5-7.5 7.5zm-65.664062-15h52.472656l-16.621094-271.351562c-.21875-3.578126 1.0625-7.125 3.519531-9.738282 2.457032-2.609375 5.921876-4.105468 9.503907-4.105468h76.390625v-41.730469h-125.265625zm0 0"/><path d="m218.386719 512h-198.125c-10.90625 0-19.773438-8.871094-19.773438-19.773438v-329.65625c0-4.140624 3.355469-7.5 7.5-7.5h210.398438c4.140625 0 7.5 3.359376 7.5 7.5v341.929688c0 4.140625-3.359375 7.5-7.5 7.5zm-202.898438-341.925781v322.152343c0 2.628907 2.140625 4.769532 4.773438 4.769532h190.621093v-326.921875zm0 0"/><path d="m358.648438 170.074219h-140.261719c-2.8125 0-5.386719-1.570313-6.671875-4.070313-1.285156-2.496094-1.066406-5.503906.566406-7.792968l70.132812-98.183594c1.40625-1.972656 3.683594-3.140625 6.105469-3.140625s4.695313 1.167969 6.101563 3.140625l70.132812 98.183594c1.632813 2.289062 1.851563 5.296874.566406 7.792968-1.289062 2.5-3.859374 4.070313-6.671874 4.070313zm-125.6875-15.003907h111.113281l-55.558594-77.78125zm0 0"/><path d="m218.382812 170.074219h-210.394531c-2.8125 0-5.382812-1.570313-6.671875-4.070313-1.285156-2.496094-1.066406-5.503906.566406-7.792968l70.132813-98.183594c1.410156-1.972656 3.683594-3.140625 6.105469-3.140625h210.394531c2.8125 0 5.386719 1.570312 6.671875 4.066406 1.285156 2.5 1.066406 5.507813-.566406 7.792969l-70.132813 98.183594c-1.410156 1.972656-3.683593 3.144531-6.105469 3.144531zm-195.820312-15.003907h191.960938l59.417968-83.183593h-191.960937zm0 0"/><path d="m288.515625 71.886719h-210.394531c-4.144532 0-7.503906-3.359375-7.503906-7.5v-42.46875c0-12.085938 9.832031-21.917969 21.917968-21.917969h181.566406c12.085938 0 21.917969 9.832031 21.917969 21.917969v42.46875c0 4.140625-3.359375 7.5-7.503906 7.5zm-202.894531-15h195.394531v-34.96875c0-3.816407-3.101563-6.917969-6.914063-6.917969h-181.566406c-3.8125 0-6.914062 3.101562-6.914062 6.917969zm0 0"/><path d="m409.410156 512h-117.859375c-6.886719 0-12.605469-5.382812-13.023437-12.25l-1.140625-18.585938c-.125-2.0625.609375-4.089843 2.023437-5.597656 1.417969-1.503906 3.398438-2.359375 5.464844-2.359375h131.207031c2.070313 0 4.046875.855469 5.464844 2.359375 1.417969 1.507813 2.148437 3.535156 2.023437 5.601563l-1.140624 18.582031c-.417969 6.867188-6.140626 12.25-13.019532 12.25zm-116.023437-15h114.183593l.539063-8.792969h-115.261719zm0 0"/><path d="m416.082031 488.207031h-131.207031c-3.964844 0-7.246094-3.082031-7.488281-7.039062l-10.527344-171.859375c-.203125-3.328125 1.816406-6.394532 4.953125-7.519532 13.261719-4.757812 40.851562-14.65625 81.527344 2.132813 27.03125 11.15625 57.742187 3.5 70.203125-2.109375 3.773437-1.699219 8.214843-.015625 9.914062 3.761719 1.703125 3.777343.019531 8.21875-3.757812 9.917969-14.503907 6.527343-50.320313 15.40625-82.082031 2.296874-30.789063-12.707031-52.238282-8.066406-65.4375-3.722656l9.75 159.140625h124.152343c4.144531 0 7.5 3.359375 7.5 7.5 0 4.144531-3.355469 7.5-7.5 7.5zm0 0"/><path d="m339.566406 423.480469c-11.652344 0-21.132812-9.480469-21.132812-21.132813s9.480468-21.132812 21.132812-21.132812 21.132813 9.480468 21.132813 21.132812-9.476563 21.132813-21.132813 21.132813zm0-27.265625c-3.378906 0-6.128906 2.75-6.128906 6.132812 0 3.382813 2.75 6.132813 6.128906 6.132813 3.382813 0 6.132813-2.75 6.132813-6.132813 0-3.382812-2.75-6.132812-6.132813-6.132812zm0 0"/><path d="m368.207031 361.191406c-.488281 0-.976562-.050781-1.457031-.148437-.480469-.101563-.949219-.238281-1.410156-.429688-.449219-.179687-.890625-.421875-1.292969-.691406-.40625-.269531-.796875-.582031-1.140625-.929687-1.398438-1.390626-2.199219-3.332032-2.199219-5.300782 0-1.980468.800781-3.910156 2.199219-5.3125.34375-.339844.730469-.65625 1.140625-.929687.402344-.269531.84375-.5 1.292969-.6875.460937-.191407.929687-.332031 1.410156-.433594.957031-.1875 1.960938-.1875 2.929688 0 .476562.101563.949218.242187 1.398437.433594.449219.1875.890625.417969 1.289063.6875.421874.273437.800781.589843 1.152343.929687.339844.351563.648438.730469.929688 1.140625.269531.410157.5.851563.6875 1.300781.183593.449219.332031.921876.421875 1.402344.101562.488282.148437.976563.148437 1.46875 0 1.96875-.800781 3.910156-2.1875 5.300782-.351562.347656-.730469.660156-1.152343.929687-.398438.269531-.839844.511719-1.289063.691406-.449219.1875-.921875.328125-1.398437.429688-.492188.097656-.980469.148437-1.472657.148437zm0 0"/><path d="m218.386719 512h-198.125c-10.90625 0-19.773438-8.871094-19.773438-19.773438v-164.628906c0-4.140625 3.355469-7.5 7.5-7.5h30.414063c4.140625 0 7.5 3.359375 7.5 7.5 0 10.421875 6.359375 20.429688 17.902344 28.183594 12.464843 8.367188 29.175781 12.976562 47.054687 12.976562 17.882813 0 34.59375-4.609374 47.054687-12.976562 11.546876-7.753906 17.902344-17.761719 17.902344-28.183594 0-4.140625 3.359375-7.5 7.503906-7.5h35.066407c4.140625 0 7.5 3.359375 7.5 7.5v176.902344c0 4.140625-3.359375 7.5-7.5 7.5zm-202.898438-176.902344v157.128906c0 2.632813 2.140625 4.773438 4.773438 4.773438h190.621093v-161.902344h-20.75c-2.335937 12.671875-10.605468 24.234375-23.855468 33.132813-14.910156 10.011719-34.589844 15.527343-55.417969 15.527343s-40.507813-5.515624-55.417969-15.527343c-13.25-8.898438-21.515625-20.460938-23.855468-33.132813zm0 0"/><path d="m110.859375 383.757812c-20.828125 0-40.507813-5.515624-55.417969-15.523437-15.824218-10.628906-24.539062-25.0625-24.539062-40.636719 0-25.734375 24.671875-48.109375 60-54.40625 4.074218-.726562 7.972656 1.988282 8.699218 6.066406.730469 4.078126-1.988281 7.972657-6.066406 8.699219-28.042968 5-47.632812 21.300781-47.632812 39.640625 0 10.421875 6.359375 20.429688 17.90625 28.183594 12.460937 8.367188 29.171875 12.976562 47.054687 12.976562 17.878907 0 34.589844-4.609374 47.050781-12.976562 11.546876-7.753906 17.902344-17.761719 17.902344-28.183594 0-18.699218-20.917968-35.515625-49.746094-39.984375-4.09375-.636719-6.894531-4.46875-6.261718-8.5625.636718-4.09375 4.464844-6.898437 8.5625-6.261719 36.769531 5.703126 62.449218 28.238282 62.449218 54.808594 0 15.574219-8.714843 30.007813-24.542968 40.636719-14.910156 10.011719-34.589844 15.523437-55.417969 15.523437zm0 0"/><path d="m409.40625 512h-117.855469c-6.886719 0-12.605469-5.382812-13.023437-12.25l-16.789063-274.101562c-.21875-3.578126 1.066407-7.128907 3.519531-9.738282 2.457032-2.609375 5.921876-4.105468 9.503907-4.105468h151.433593c3.585938 0 7.046876 1.496093 9.503907 4.105468s3.738281 6.160156 3.519531 9.738282l-8.179688 133.566406c-.253906 4.136718-3.832031 7.261718-7.945312 7.03125-4.132812-.257813-7.28125-3.8125-7.027344-7.945313l8.054688-131.496093h-147.28125l16.546875 270.195312h114.183593l6.351563-103.699219c.253906-4.132812 3.832031-7.253906 7.945313-7.027343 4.132812.253906 7.28125 3.8125 7.027343 7.945312l-6.464843 105.53125c-.417969 6.867188-6.140626 12.25-13.023438 12.25zm0 0"/></svg>