<svg height="512pt" viewBox="0 0 512 512" width="512pt" xmlns="http://www.w3.org/2000/svg"><path d="m219.957031 295.546875c1.945313 1.910156 4.472657 2.863281 7 2.863281 2.59375 0 5.183594-1 7.140625-2.996094 3.871094-3.945312 3.808594-10.277343-.132812-14.144531l-.296875-.289062c-3.933594-3.878907-10.265625-3.835938-14.144531.101562-3.875 3.933594-3.832032 10.265625.101562 14.144531zm0 0"/><path d="m391.105469 338.125c-6.289063-10.9375-14.171875-21.335938-23.644531-30.808594-19.792969-19.792968-44.070313-33.289062-70.203126-39.019531-26.679687-5.855469-47.703124-26.875-53.554687-53.558594-5.734375-26.132812-19.230469-50.40625-39.023437-70.203125-51.125-51.125-129.226563-56.222656-174.097657-11.351562-42.4375 42.4375-40.171875 114.597656 3.457031 165.550781.011719.015625.027344.03125.039063.046875 2.488281 2.902344 5.101563 5.742188 7.859375 8.5 19.792969 19.792969 44.070312 33.289062 70.203125 39.019531 26.679687 5.855469 47.699219 26.875 53.554687 53.554688 5.734376 26.136719 19.226563 50.410156 39.023438 70.207031 27.75 27.75 63.441406 41.941406 97.460938 41.9375 28.652343 0 56.121093-10.070312 76.636718-30.585938 36.257813-36.257812 39.882813-94.21875 12.957032-142.109374-.195313-.402344-.414063-.800782-.667969-1.179688zm-20.964844 4.046875-28.871094 28.871094c-5.714843-6.65625-11.773437-13.191407-18.058593-19.476563-6.164063-6.164062-12.460938-12.015625-18.816407-17.5l28.957031-28.960937c7.078126 4.699219 13.773438 10.164062 19.964844 16.355469 6.46875 6.46875 12.074219 13.429687 16.824219 20.710937zm-145.976563-123.144531c7.519532 34.277344 34.527344 61.285156 68.808594 68.804687 7.574219 1.664063 14.964844 4.109375 22.105469 7.261719l-26.3125 26.3125c-8.128906-6.15625-16.25-11.648438-24.214844-16.335938-.347656-.207031-.695312-.414062-1.042969-.621093-4.734374-2.851563-10.878906-1.324219-13.726562 3.410156-2.851562 4.730469-1.324219 10.878906 3.410156 13.726563.40625.246093.816406.488281 1.21875.726562 6.589844 3.878906 13.316406 8.367188 20.070313 13.375l-13.375 13.375c-3.90625 3.90625-3.90625 10.238281 0 14.144531 1.953125 1.953125 4.511719 2.929688 7.074219 2.929688 2.558593 0 5.117187-.976563 7.070312-2.929688l14.957031-14.957031c6.355469 5.4375 12.671875 11.273438 18.859375 17.460938 6.40625 6.410156 12.429688 12.949218 18.019532 19.515624l-44.464844 44.460938c-6.5625-5.585938-13.105469-11.609375-19.511719-18.019531-17.851563-17.851563-32.859375-36.75-43.398437-54.65625-14.796876-25.128907-39.597657-49.933594-64.726563-64.726563-17.90625-10.539062-36.804687-25.546875-54.65625-43.398437-.140625-.136719-.273437-.28125-.410156-.417969l45.949219-45.949219c.140624.136719.277343.269531.417968.410157 17.851563 17.851562 32.859375 36.75 43.398438 54.65625 2.800781 4.757812 8.929687 6.347656 13.691406 3.542968 4.761719-2.800781 6.347656-8.929687 3.546875-13.691406-11.386719-19.339844-27.460937-39.621094-46.492187-58.652344-.136719-.136718-.277344-.273437-.414063-.414062l30.101563-30.097656c.136718.136718.277343.269531.417968.40625 17.085938 17.085937 28.714844 37.957031 33.628906 60.347656zm140.507813 248.242187c-3.699219 3.703125-15.9375 3.347657-34.933594-5.78125-9.96875-4.789062-20.574219-11.34375-31.34375-19.28125l41.214844-41.214843c7.933594 10.769531 14.492187 21.378906 19.28125 31.34375 9.128906 18.996093 9.480469 31.234374 5.78125 34.933593zm-319.945313-319.941406c3.699219-3.703125 15.9375-3.347656 34.933594 5.777344 3.484375 1.675781 7.054688 3.585937 10.675782 5.671875l-12.535157 12.53125c-3.902343 3.90625-3.902343 10.238281 0 14.144531 1.957031 1.953125 4.515625 2.929687 7.074219 2.929687s5.117188-.976562 7.070312-2.929687l15.585938-15.582031c7.867188 5.589844 15.839844 11.957031 23.746094 18.949218l-45.058594 45.058594c-15.503906-17.53125-27.925781-35.417968-35.710938-51.617187-9.128906-18.996094-9.480468-31.234375-5.78125-34.933594zm130.085938-2.042969-29.367188 29.367188c-7.722656-6.863282-15.648437-13.296875-23.59375-19.105469l25.332032-25.328125c9.550781 3.699219 18.867187 8.730469 27.628906 15.066406zm-67.578125-22.746094c5.886719 0 11.84375.519532 17.804687 1.535157l-20.089843 20.089843c-11.050781-6.785156-21.84375-12.070312-31.839844-15.347656 10.691406-4.195312 22.257813-6.277344 34.125-6.277344zm-81.019531 53.167969c7.269531 22.175781 24.441406 48.273438 45.839844 72.339844l-29.371094 29.367187c-22.867188-31.640624-28.738282-70.433593-16.46875-101.707031zm275.949218 316.351563c-28.847656-.003906-59.429687-12.269532-83.300781-36.140625-17.089843-17.085938-28.714843-37.953125-33.628906-60.347657-7.523437-34.277343-34.527344-61.285156-68.808594-68.804687-22.390625-4.914063-43.257812-16.542969-60.34375-33.628906-.140625-.140625-.273437-.28125-.410156-.417969l30.101563-30.101562c.136718.136718.273437.277343.410156.414062 19.03125 19.03125 39.3125 35.105469 58.65625 46.492188 22.039062 12.972656 44.660156 35.597656 57.632812 57.636718 11.386719 19.339844 27.464844 39.621094 46.492188 58.652344 27.800781 27.800781 60.445312 51.160156 87.324218 59.96875-10.691406 4.195312-22.261718 6.277344-34.125 6.277344zm81.019532-53.167969c-5.273438-16.085937-15.757813-34.238281-29.289063-52.179687l26.144531-26.148438c11.304688 26.136719 12.519532 54.429688 3.144532 78.328125zm0 0"/><path d="m446.597656 96.015625c-36.0625 0-65.398437 33.648437-65.398437 75.011719 0 41.359375 29.335937 75.011718 65.398437 75.011718s65.398438-33.652343 65.398438-75.011718c0-41.363282-29.335938-75.011719-65.398438-75.011719zm0 130.019531c-25.03125 0-45.398437-24.675781-45.398437-55.007812 0-30.332032 20.367187-55.007813 45.398437-55.007813s45.398438 24.675781 45.398438 55.007813c0 30.332031-20.367188 55.007812-45.398438 55.007812zm0 0"/><path d="m295.6875 130.796875c41.363281 0 75.011719-29.335937 75.011719-65.398437s-33.648438-65.398438-75.011719-65.398438-75.011719 29.335938-75.011719 65.398438 33.652344 65.398437 75.011719 65.398437zm0-110.792969c30.332031 0 55.007812 20.363282 55.007812 45.394532s-24.675781 45.398437-55.007812 45.398437-55.007812-20.367187-55.007812-45.398437 24.675781-45.394532 55.007812-45.394532zm0 0"/></svg>