<svg height="511pt" viewBox="-42 0 511 511.2168" width="511pt" xmlns="http://www.w3.org/2000/svg"><path d="m227.828125 460.261719c-2.722656 0-5.34375-1.488281-6.675781-4.070313-1.894532-3.683594-.441406-8.203125 3.238281-10.097656 29.78125-15.3125 49.734375-39.609375 54.746094-66.664062.753906-4.070313 4.671875-6.753907 8.734375-6.007813 4.070312.757813 6.761718 4.667969 6.007812 8.738281-5.859375 31.652344-28.6875 59.816406-62.628906 77.269532-1.097656.5625-2.269531.832031-3.421875.832031zm0 0"/><path d="m173.925781 158.113281c-3.898437 0-7.1875-3.011719-7.46875-6.960937-.070312-.992188-1.648437-24.65625 5.460938-54.894532 9.476562-40.328124 30.085937-73.109374 59.59375-94.800781 3.339843-2.453125 8.03125-1.734375 10.480469 1.601563 2.453124 3.335937 1.738281 8.027344-1.597657 10.480468-26.863281 19.746094-44.957031 48.578126-53.777343 85.699219-6.675782 28.105469-5.222657 50.632813-5.203126 50.859375.285157 4.125-2.828124 7.707032-6.957031 7.996094-.175781.015625-.355469.019531-.53125.019531zm0 0"/><path d="m211.417969 108.710938c-3.207031 0-6.171875-2.074219-7.164063-5.296876-5.0625-16.453124-20.261718-24.324218-20.417968-24.398437-3.679688-1.867187-5.175782-6.367187-3.324219-10.054687 1.847656-3.691407 6.3125-5.199219 10.011719-3.367188.859374.425781 21.058593 10.65625 28.058593 33.414062 1.21875 3.957032-1 8.152344-4.957031 9.367188-.734375.226562-1.476562.335938-2.207031.335938zm0 0"/><path d="m99.808594 123.65625c-5.425782 0-10.695313-.859375-15.585938-2.632812-3.953125-1.433594-6.746094-4.761719-7.472656-8.898438-3.171875-18.003906 5.578125-38.707031 22.285156-52.746094 16.714844-14.035156 38.617188-19.078125 55.800782-12.851562 3.953124 1.433594 6.746093 4.757812 7.476562 8.898437 3.171875 18.003907-5.578125 38.707031-22.289062 52.746094-11.957032 10.042969-26.570313 15.484375-40.214844 15.484375zm-8.570313-16.113281c11.976563 3.394531 27.101563-.738281 39.140625-10.851563 12.039063-10.113281 18.722656-24.296875 17.445313-36.683594-11.980469-3.394531-27.105469.738282-39.144531 10.851563-12.035157 10.117187-18.71875 24.296875-17.441407 36.683594zm56.308594-49.515625v.003906c0-.003906 0-.003906 0-.003906zm0 0"/><path d="m154.503906 62.996094c-3.292968 0-6.3125-2.1875-7.226562-5.519532-1.097656-3.992187 1.253906-8.117187 5.246094-9.210937 22.886718-6.277344 44.34375-4.027344 45.246093-3.925781 4.117188.449218 7.085938 4.152344 6.636719 8.269531-.453125 4.109375-4.148438 7.078125-8.261719 6.632813-.191406-.019532-19.617187-2.011719-39.65625 3.480468-.660156.183594-1.328125.273438-1.984375.273438zm0 0"/><path d="m184.828125 511c-3.851563 0-7.125-2.949219-7.460937-6.855469-.355469-4.125 2.703124-7.757812 6.828124-8.109375 77.195313-6.625 135.410157-57.203125 135.410157-117.648437 0-26.957031-12.019531-53.355469-33.84375-74.332031-19.902344-19.125-30.40625-45.984376-28.816407-73.691407.09375-1.632812.140626-3.289062.140626-4.914062.011718-45.941407-35.898438-83.273438-81.757813-84.988281-23.355469-.875-45.460937 7.550781-62.246094 23.722656-16.792969 16.179687-26.042969 37.925781-26.042969 61.238281 0 .433594.003907.867187.011719 1.300781.414063 27.652344-11.621093 54.140625-33.019531 72.679688-25.117188 21.753906-38.945312 49.804687-38.945312 78.984375 0 60.445312 58.210937 111.023437 135.40625 117.648437 4.125.355469 7.183593 3.984375 6.828124 8.109375-.351562 4.125-3.988281 7.183594-8.109374 6.828125-85.011719-7.292968-149.1210942-64.292968-149.1210942-132.585937 0-33.59375 15.6718752-65.671875 44.1250002-90.320313 18.042968-15.632812 28.191406-37.90625 27.84375-61.113281-.007813-.507813-.011719-1.019531-.011719-1.53125 0-27.425781 10.878906-53.007813 30.632813-72.039063 19.746093-19.023437 45.734374-28.9375 73.210937-27.90625 53.953125 2.019532 96.203125 45.929688 96.1875 99.972657 0 1.910156-.054687 3.851562-.164063 5.769531-1.335937 23.332031 7.5 45.9375 24.238282 62.027344 24.792968 23.828125 38.445312 54.066406 38.445312 85.140625 0 68.289062-64.105468 125.292969-149.117187 132.589843-.222657.015626-.4375.023438-.652344.023438zm0 0"/><path d="m297.28125 459.117188c-2.597656 0-5.066406-1.355469-6.441406-3.660157-1.6875-2.835937-1.320313-6.441406.898437-8.878906 18.230469-20.046875 27.863281-43.625 27.863281-68.195313 0-26.957031-12.015624-53.351562-33.839843-74.328124-19.902344-19.125-30.40625-45.984376-28.816407-73.691407.089844-1.632812.136719-3.289062.136719-4.914062.015625-45.945313-35.894531-83.273438-81.753906-84.988281-1.570313-.058594-3.1875-.074219-4.800781-.042969-2.9375.027343-5.640625-1.617188-6.902344-4.269531-1.265625-2.652344-.863281-5.800782 1.027344-8.050782 14.28125-16.996094 33.398437-28.25 55.285156-32.546875 51.074219-10.019531 100.417969 21.851563 112.339844 72.570313.421875 1.792968.800781 3.628906 1.121094 5.449218 3.871093 22.039063 17.0625 41.167969 36.195312 52.488282 25.890625 15.324218 44.035156 37.066406 52.464844 62.871094 1.285156 3.933593-.863282 8.167968-4.796875 9.453124-3.9375 1.285157-8.171875-.863281-9.457031-4.796874-7.28125-22.292969-23.136719-41.179688-45.847657-54.621094-22.902343-13.554688-38.695312-36.445313-43.328125-62.796875-.269531-1.542969-.589844-3.097657-.945312-4.617188-10.070313-42.828125-51.734375-69.75-94.859375-61.285156-13.164063 2.585937-25.144531 8.144531-35.300781 16.3125 48.273437 7.394531 84.570312 48.78125 84.554687 98.871094 0 1.910156-.054687 3.851562-.164063 5.769531-1.335937 23.332031 7.5 45.941406 24.238282 62.027344 24.792968 23.828125 38.445312 54.066406 38.445312 85.140625 0 20.808593-5.914062 40.921875-17.269531 59.183593 54.507813-20.613281 92.417969-64.261718 94.785156-111.699218.203125-4.136719 3.734375-7.328125 7.859375-7.117188 4.132813.207032 7.320313 3.726563 7.113282 7.863282-1.441407 28.882812-14.933594 57.957031-37.996094 81.867187-23.40625 24.265625-54.535156 41.703125-90.015625 50.417969-.597657.144531-1.199219.214844-1.792969.214844zm0 0"/></svg>