<?xml version="1.0"?>
<svg xmlns="http://www.w3.org/2000/svg" viewBox="0 0 64 64" width="512" height="512"><g id="outline"><path d="M9.793,28.172C8,31.705,8,31.705,8,48V59a3,3,0,0,0,3,3H27a3,3,0,0,0,3-3V37.979c-.139-6.376-.659-7.415-2.05-10.19l-.118-.236A31.26,31.26,0,0,1,25.031,16H27V8H22.847l-1-6H16.153l-1,6H11v8h1.967a31.354,31.354,0,0,1-2.862,11.553ZM17.847,4h2.306l.666,4H17.181ZM13,10H25v4H13ZM11.9,28.447A33.741,33.741,0,0,0,14.976,16h8.045a33.069,33.069,0,0,0,3.022,12.447l.119.238c1.277,2.549,1.709,3.41,1.838,9.326V59a1,1,0,0,1-1,1H11a1,1,0,0,1-1-1V58h8V56H10V48c0-15.816,0-15.816,1.576-18.923Z"/><path d="M26,39a7,7,0,0,0-14,0V54H26ZM24,52H14V39a5,5,0,0,1,10,0Z"/><rect x="24" y="56" width="2" height="2"/><rect x="16" y="27" width="2" height="2"/><rect x="13" y="30" width="2" height="2"/><path d="M34,23V59a3,3,0,0,0,3,3H51a3,3,0,0,0,3-3V23a5.009,5.009,0,0,0-4-4.9V16h2V8H47.847l-1-6H41.153l-1,6H36v8h2v2.1A5.009,5.009,0,0,0,34,23ZM52,56H46v2h6v1a1,1,0,0,1-1,1H37a1,1,0,0,1-1-1V54H52Zm0-4H36V46H52ZM42.847,4h2.306l.666,4H42.181ZM38,10H50v4H38Zm10,6v2H40V16Zm-9,4H49a3,3,0,0,1,3,3V44H36V23A3,3,0,0,1,39,20Z"/><rect x="48" y="28" width="2" height="14"/></g></svg>
