<svg height="682pt" viewBox="-21 -56 682.66669 682" width="682pt" xmlns="http://www.w3.org/2000/svg"><path d="m450.058594 243.054688h-18.75v-18.75h18.75zm-31.25 0h-18.75v-18.75h18.75zm0 0"/><path d="m606.15625-2h-401.449219v18.75h393.6875l22.855469 22.855469v43.875h-18.75v-26.554688l-21.398438-21.394531h-426.394531v18.75h418.632813l10.410156 10.410156v18.789063h-341.90625c-133.351562 0-241.84375 108.488281-241.84375 241.839843 0 133.355469 108.492188 241.84375 241.84375 241.84375h119.398438v-18.75c-70.699219 0-128.777344-55.070312-133.59375-124.570312h40.679687v-18.75h-40.679687c1.21875-17.546875 5.832031-34.171875 13.191406-49.226562l35.230468 20.335937 9.375-16.234375-35.214843-20.332031c9.597656-14.191407 21.839843-26.445313 36.015625-36.066407l20.347656 35.246094 16.238281-9.375-20.371093-35.277344c15.058593-7.390624 31.695312-12.027343 49.261718-13.269531v40.808594h18.75v-41.148437h159.753906l109.773438-109.769532v-138.941406zm15.09375 165.015625-98.789062 98.789063h-161.21875c-54.898438 0-103.113282 29.128906-130.027344 72.738281l-166.09375-89.507813-8.894532 16.511719 166.140626 89.53125c-8.046876 17.546875-12.855469 36.875-13.671876 57.210937l-123.285156 26.738282 3.972656 18.324218 119.738282-25.964843c4.390625 52.195312 35.132812 97.015625 78.863281 121.027343h-46.144531c-123.011719 0-223.089844-100.078124-223.089844-223.09375 0-123.011718 100.078125-223.089843 223.09375-223.089843h379.40625zm0 0"/><path d="m508.394531 187.644531c18.953125 0 34.375-15.421875 34.375-34.375 0-18.957031-15.421875-34.375-34.375-34.375-18.957031 0-34.375 15.417969-34.375 34.375 0 18.953125 15.417969 34.375 34.375 34.375zm0-50c8.613281 0 15.625 7.007813 15.625 15.625 0 8.613281-7.011719 15.625-15.625 15.625-8.621093 0-15.625-7.011719-15.625-15.625 0-8.617187 7.003907-15.625 15.625-15.625zm0 0"/><path d="m267.6875 460.84375v18.75h215.320312l25.039063 25.039062h-132.539063v18.75h151.289063l8.335937 8.332032v16.699218h-140.140624v18.75h158.890624v-43.214843l-63.105468-63.105469zm0 0"/><path d="m184.617188 140.414062 13.257812-13.257812 112.550781 112.546875-13.257812 13.261719zm0 0"/></svg>