<svg height="496pt" viewBox="0 0 496 496" width="496pt" xmlns="http://www.w3.org/2000/svg"><path d="m208 160c17.648438 0 32-14.351562 32-32h-16c0 8.824219-7.175781 16-16 16-3.878906 0-7.65625-1.488281-10.648438-4.167969l-10.703124 11.886719c5.925781 5.335938 13.511718 8.28125 21.351562 8.28125zm0 0"/><path d="m104 144h16c0-17.648438-14.351562-32-32-32-7.839844 0-15.425781 2.945312-21.351562 8.28125l10.703124 11.886719c2.992188-2.679688 6.769532-4.167969 10.648438-4.167969 8.824219 0 16 7.175781 16 16zm0 0"/><path d="m168 88c3.878906 0 7.65625 1.488281 10.648438 4.167969l10.703124-11.886719c-5.925781-5.335938-13.511718-8.28125-21.351562-8.28125-17.648438 0-32 14.351562-32 32h16c0-8.824219 7.175781-16 16-16zm0 0"/><path d="m472 288h-27.160156l10.839844-108.414062c.207031-2.121094.320312-4.242188.320312-6.386719v-5.199219c0-16.0625-6-30.726562-15.808594-41.984375l8.503906-102.015625h-32.695312v-24h-48v24h-32.695312l8.503906 102.015625c-9.808594 11.257813-15.808594 25.921875-15.808594 41.984375v5.199219c0 2.144531.113281 4.265625.320312 6.375l3.617188 36.179687c-8.601562-3.867187-17.90625-6.425781-27.691406-7.339844 1.226562-32.628906 10.25-64.660156 26.480468-93.070312l4.21875-7.375-13.890624-7.9375-4.214844 7.375c-17.609375 30.816406-27.34375 65.585938-28.582032 100.984375-26.546874 2.335937-49.714843 16.488281-64.25 37.167969v-45.957032c27.855469-3.203124 49.578126-26.90625 49.578126-55.601562 0-16.855469-7.523438-31.960938-19.347657-42.230469 1.136719-4.480469 1.761719-9.082031 1.761719-13.769531 0-30.871094-25.128906-56-56-56-4.3125 0-8.558594.558594-12.734375 1.542969-8.671875-19.71875-28.378906-33.542969-51.265625-33.542969s-42.59375 13.824219-51.265625 33.542969c-4.175781-.984375-8.421875-1.542969-12.734375-1.542969-30.871094 0-56 25.128906-56 56 0 5.097656.703125 10.105469 2.039062 14.953125-11.0625 10.230469-18.039062 24.824219-18.039062 41.046875 0 28.152344 20.910156 51.457031 48 55.359375v72.640625c0 5.398438.550781 10.742188 1.511719 16h-25.511719c-13.230469 0-24 10.769531-24 24s10.769531 24 24 24h24v80c0 44.113281 35.886719 80 80 80h240c44.113281 0 80-35.886719 80-80v-80h24c13.230469 0 24-10.769531 24-24s-10.769531-24-24-24zm-88.40625 0c-1.648438-18.136719-8.777344-34.710938-19.769531-48h28.175781v-16h-43.160156l-3.199219-32h46.359375v-16h-47.855469c-.054687-.9375-.144531-1.863281-.144531-2.800781v-5.199219c0-26.472656 21.527344-48 48-48s48 21.527344 48 48v5.199219c0 1.59375-.078125 3.183593-.238281 4.785156l-11 110.015625zm47.710938-248-6.113282 73.382812c-2.925781-1.78125-5.984375-3.367187-9.191406-4.671874v-68.710938zm-31.304688-24v88.550781c-2.625-.328125-5.289062-.550781-8-.550781s-5.375.222656-8 .550781v-88.550781zm-32 24v68.710938c-3.207031 1.304687-6.265625 2.890624-9.191406 4.671874l-6.113282-73.382812zm-31.6875 196.375-17.328125 17.328125-22.984375-15.320313-22.984375 15.320313-17.328125-17.328125c11.511719-7.808594 25.382812-12.375 40.3125-12.375s28.800781 4.566406 40.3125 12.375zm-92.777344 10.472656 27.449219 27.449219 25.015625-16.679687 25.015625 16.679687 27.449219-27.449219c10.359375 11.046875 17.304687 25.3125 19.0625 41.152344h-143.054688c1.757813-15.839844 8.703125-30.105469 19.0625-41.152344zm-179.535156 25.152344v-72.617188c7.039062-1.015624 13.847656-3.320312 20.007812-6.886718l-8.015624-13.839844c-6.046876 3.496094-12.960938 5.34375-19.992188 5.34375-22.054688 0-40-17.945312-40-40s17.945312-40 40-40v-16c-8.398438 0-16.351562 1.910156-23.511719 5.246094-.230469-1.734375-.488281-3.46875-.488281-5.246094 0-22.054688 17.945312-40 40-40 2.871094 0 5.695312.390625 8.488281 1.007812-.289062 2.296876-.488281 4.617188-.488281 6.992188h16c0-22.054688 17.945312-40 40-40s40 17.945312 40 40h16c0-2.375-.199219-4.695312-.488281-6.992188 2.792969-.617187 5.617187-1.007812 8.488281-1.007812 22.054688 0 40 17.945312 40 40 0 1.527344-.246094 3.015625-.414062 4.519531-6.761719-2.902343-14.203126-4.519531-22.011719-4.519531v16c22.058593 0 40 17.945312 40 40s-17.941407 40-40 40c-5.054688 0-9.980469-.929688-14.644531-2.769531l-5.859376 14.890625c3.546876 1.390625 7.210938 2.382812 10.929688 3.023437v72.855469c0 5.433594-.808594 10.761719-2 16h-62v-22.3125c0-36.160156 10.601562-71.167969 30.65625-101.246094l-13.3125-8.875c-11.273438 16.90625-19.734375 35.257813-25.34375 54.457032-5.609375-19.199219-14.070312-37.550782-25.34375-54.457032l-13.3125 8.875c20.054688 30.070313 30.65625 65.085938 30.65625 101.246094v22.3125h-62c-1.191406-5.238281-2-10.566406-2-16zm408 48h-56v16h16v16h-56v16h56v16h-56v16h56v16h-56v16h53.894531c-1.46875 5.679688-3.679687 11.046875-6.550781 16h-47.34375v16h34.191406c-11.28125 9.929688-26.023437 16-42.191406 16h-240c-17.328125 0-33.046875-6.953125-44.585938-18.175781h36.585938v-16h-48.585938c-2.285156-4.335938-4.054687-8.976563-5.308593-13.824219h53.894531v-16h-56v-16h56v-16h-56v-16h56v-16h-56v-16h336v-16h-376c-4.414062 0-8-3.585938-8-8s3.585938-8 8-8h448c4.414062 0 8 3.585938 8 8s-3.585938 8-8 8zm0 0"/><path d="m136 368h48v16h-48zm0 0"/><path d="m200 352h96v16h-96zm0 0"/><path d="m200 384h96v16h-96zm0 0"/><path d="m312 368h48v16h-48zm0 0"/><path d="m136 432h48v16h-48zm0 0"/><path d="m200 416h96v16h-96zm0 0"/><path d="m200 448h96v16h-96zm0 0"/><path d="m312 432h48v16h-48zm0 0"/><path d="m312 400h16v16h-16zm0 0"/><path d="m344 400h16v16h-16zm0 0"/><path d="m168 400h16v16h-16zm0 0"/><path d="m136 400h16v16h-16zm0 0"/></svg>